<?xml version="1.0"?>
<svg xmlns="http://www.w3.org/2000/svg" xmlns:xlink="http://www.w3.org/1999/xlink" xmlns:svgjs="http://svgjs.com/svgjs" version="1.1" width="512" height="512" x="0" y="0" viewBox="0 0 512 512" style="enable-background:new 0 0 512 512" xml:space="preserve" class=""><g><g xmlns="http://www.w3.org/2000/svg"><g><path clip-rule="evenodd" d="m25.165 190.112h151.736v26.578l65.365-46.468-65.365-46.469v26.578h-151.736z" fill="#ffdbcf" fill-rule="evenodd" data-original="#98eaf9" style="" class=""/></g><g><path clip-rule="evenodd" d="m414.865 353.981h71.97v-94.252l-33.335-84.706-16.667-42.353h-20.353-123.985v221.312l50.286-.029c8.589-10.403 21.543-17.061 36.028-17.061 14.513-.001 27.467 6.658 36.056 17.089z" fill="#ffdbcf" fill-rule="evenodd" data-original="#98eaf9" style="" class=""/></g><g><path clip-rule="evenodd" d="m360.752 259.729h126.083l-33.335-84.706h-92.748v78.476z" fill="#ffffff" fill-rule="evenodd" data-original="#ffffff" style="" class=""/></g><g><path clip-rule="evenodd" d="m292.495 353.981v-221.311h38.494v-51.985h-305.824v69.646h151.736v-26.578l65.366 46.469-65.366 46.469v-26.578h-151.736v163.869l57.599-.029c8.589-10.403 21.543-17.061 36.056-17.061 14.485 0 27.439 6.659 36.028 17.09h137.647z" fill="#f15927" fill-rule="evenodd" data-original="#ff6c8a" style="" class=""/></g><g><path clip-rule="evenodd" d="m164.343 395.163h168.942c-.85-3.544-1.304-7.259-1.304-11.06 0-11.46 4.053-21.948 10.8-30.15l-50.286.029-137.648-.029c6.746 8.202 10.8 18.69 10.8 30.15 0 3.801-.453 7.516-1.304 11.06z" fill="#cfd3df" fill-rule="evenodd" data-original="#cfd3df" style="" class=""/></g><g><path clip-rule="evenodd" d="m25.165 395.163h48.131c-.85-3.544-1.304-7.259-1.304-11.06 0-11.46 4.053-21.948 10.771-30.122h-57.598c-8.334 0-15.165 6.859-15.165 15.261v10.631c0 8.402 6.831 15.29 15.165 15.29z" fill="#cfd3df" fill-rule="evenodd" data-original="#cfd3df" style="" class=""/></g><g><path clip-rule="evenodd" d="m486.835 395.163c8.334 0 15.165-6.887 15.165-15.289v-10.631c0-8.402-6.831-15.261-15.165-15.261l-71.97-.029c6.718 8.202 10.771 18.69 10.771 30.15 0 3.801-.454 7.516-1.304 11.06z" fill="#cfd3df" fill-rule="evenodd" data-original="#cfd3df" style="" class=""/></g><g><path clip-rule="evenodd" d="m378.809 431.315c22.081 0 40.591-15.404 45.524-36.152.85-3.544 1.304-7.259 1.304-11.06 0-11.46-4.053-21.948-10.771-30.122-8.589-10.431-21.543-17.09-36.056-17.09-14.485 0-27.439 6.659-36.028 17.061-6.746 8.202-10.8 18.69-10.8 30.15 0 3.801.454 7.516 1.304 11.06 4.931 20.749 23.441 36.153 45.523 36.153z" fill="#9ea6bf" fill-rule="evenodd" data-original="#9ea6bf" style="" class=""/></g><g><path clip-rule="evenodd" d="m118.82 431.315c22.081 0 40.591-15.404 45.524-36.152.85-3.544 1.304-7.259 1.304-11.06 0-11.46-4.053-21.948-10.8-30.122-8.589-10.431-21.543-17.09-36.028-17.09-14.513 0-27.467 6.659-36.056 17.061-6.718 8.202-10.771 18.69-10.771 30.15 0 3.801.454 7.516 1.304 11.06 4.932 20.749 23.441 36.153 45.523 36.153z" fill="#9ea6bf" fill-rule="evenodd" data-original="#9ea6bf" style="" class=""/></g><g><path d="m118.848 394.103c-5.523 0-10.028-4.477-10.028-10s4.449-10 9.972-10h.057c5.523 0 10 4.477 10 10s-4.478 10-10.001 10z" fill="#444444" data-original="#000000" style="" class=""/></g><g><path d="m496.835 346.067v-86.338c0-1.239-.24-2.509-.694-3.662l-50.002-127.06c-1.505-3.824-5.196-6.338-9.306-6.338h-95.844v-41.983c0-5.523-4.478-10-10-10h-124.552c-5.523 0-10 4.477-10 10s4.477 10 10 10h114.552v31.984h-28.494c-5.522 0-10 4.477-10 10v211.312h-123.213c-10.313-10.541-24.64-17.09-40.462-17.09s-30.148 6.55-40.462 17.09h-43.193v-143.87h131.736v16.578c0 3.742 2.089 7.17 5.414 8.887 1.445.746 3.018 1.113 4.585 1.113 2.04 0 4.07-.624 5.795-1.85l65.366-46.469c2.639-1.876 4.206-4.913 4.206-8.15s-1.567-6.274-4.206-8.15l-65.366-46.469c-3.049-2.167-7.054-2.452-10.38-.736-3.325 1.716-5.414 5.145-5.414 8.887v16.578h-131.736v-49.645h81.472c5.523 0 10-4.477 10-10s-4.477-10-10-10h-91.472c-5.523 0-10 4.477-10 10v265.381c-8.914 3.891-15.165 12.812-15.165 23.175v10.631c0 13.944 11.289 25.289 25.165 25.289h40.834c8.35 21.152 28.872 36.152 52.821 36.152s44.471-15 52.821-36.152h154.347c8.35 21.152 28.871 36.152 52.821 36.152s44.47-15 52.821-36.152h55.206c13.876 0 25.165-11.345 25.165-25.289v-10.631c-.001-10.363-6.252-19.284-15.166-23.175zm-461.67-185.736h141.736c5.523 0 10-4.477 10-10v-7.2l38.107 27.09-38.107 27.09v-7.2c0-5.523-4.477-10-10-10h-141.736zm26.854 224.832h-36.854c-2.8 0-5.165-2.422-5.165-5.289v-10.631c0-2.852 2.365-5.261 5.165-5.261h40.466c-2.346 6.263-3.638 13.042-3.638 20.122 0 .354.02.705.026 1.059zm56.801 36.151c-20.307 0-36.827-16.693-36.827-37.211s16.521-37.212 36.827-37.212 36.828 16.693 36.828 37.212-16.522 37.211-36.828 37.211zm353.333-171.585h-101.401v-64.707h75.937zm-169.658-107.06h127.526l8.797 22.354h-78.066c-5.522 0-10 4.477-10 10v84.707c0 5.523 4.478 10 10 10h116.083v27.126h-14.718c-5.522 0-10 4.477-10 10s4.478 10 10 10h14.718v27.126h-57.564c-10.313-10.541-24.64-17.09-40.462-17.09s-30.149 6.55-40.462 17.09h-35.852zm-126.874 242.494c.006-.354.027-.704.027-1.06 0-7.079-1.293-13.858-3.638-20.122h153.61c-2.345 6.263-3.638 13.042-3.638 20.122 0 .355.02.706.027 1.06zm203.188 36.151c-20.307 0-36.827-16.693-36.827-37.211s16.521-37.212 36.827-37.212 36.827 16.693 36.827 37.212-16.521 37.211-36.827 37.211zm113.191-41.44c0 2.867-2.365 5.289-5.165 5.289h-51.226c.006-.354.027-.704.027-1.06 0-7.079-1.293-13.858-3.638-20.122h54.838c2.8 0 5.165 2.409 5.165 5.261v10.632z" fill="#444444" data-original="#000000" style="" class=""/><path d="m378.837 374.103h-.057c-5.522 0-9.972 4.477-9.972 10s4.506 10 10.028 10 10-4.477 10-10-4.477-10-9.999-10z" fill="#444444" data-original="#000000" style="" class=""/><path d="m70.49 286.739c-5.523 0-10 4.477-10 10s4.477 10 10 10h49.152c5.523 0 10-4.477 10-10s-4.477-10-10-10z" fill="#444444" data-original="#000000" style="" class=""/><path d="m159.632 256.271c0-5.523-4.477-10-10-10h-79.142c-5.523 0-10 4.477-10 10s4.477 10 10 10h79.142c5.523 0 10-4.477 10-10z" fill="#444444" data-original="#000000" style="" class=""/><path d="m161.537 90.686h.028c5.523 0 9.986-4.477 9.986-10s-4.491-10-10.014-10-10 4.477-10 10 4.477 10 10 10z" fill="#444444" data-original="#000000" style="" class=""/></g></g></g></svg>
