<?xml version="1.0"?>
<svg xmlns="http://www.w3.org/2000/svg" xmlns:xlink="http://www.w3.org/1999/xlink" xmlns:svgjs="http://svgjs.com/svgjs" version="1.1" width="512" height="512" x="0" y="0" viewBox="0 0 512 512" style="enable-background:new 0 0 512 512" xml:space="preserve" class=""><g>
<path xmlns="http://www.w3.org/2000/svg" style="" d="M421,316v60c0,8.399-6.599,15-15,15h-23.101c-1.5,4.499-3.3,9.699-5.4,13.9l16.5,16.5  c5.7,5.7,5.7,15.3,0,21L351.4,484.999c-5.7,5.7-15.3,5.7-21,0l-16.5-16.5c-4.2,2.1-8.399,3.9-12.9,5.4V497c0,8.399-6.599,15-15,15  h-60c-8.401,0-15-6.601-15-15v-23.101c-4.501-1.5-8.699-3.3-12.9-5.4l-16.5,16.5c-5.7,5.7-15.3,5.7-21,0L118.001,442.4  c-5.7-5.7-5.7-15.3,0-21l16.5-16.5c-2.1-4.2-3.9-9.401-5.4-13.9H106c-8.401,0-15-6.601-15-15v-60c0-8.401,6.599-15,15-15h90.3  c-9.6,12.599-15.3,27.9-15.3,45c0,41.4,33.6,76,75,76s75-34.6,75-76c0-17.1-5.7-32.401-15.3-45H406C414.401,301,421,307.599,421,316  z" fill="#444444" data-original="#e2e2e7" class=""/>
<path xmlns="http://www.w3.org/2000/svg" style="" d="M421,316v60c0,8.399-6.599,15-15,15h-23.101c-1.5,4.499-3.3,9.699-5.4,13.9l16.5,16.5  c5.7,5.7,5.7,15.3,0,21L351.4,484.999c-5.7,5.7-15.3,5.7-21,0l-16.5-16.5c-4.2,2.1-8.399,3.9-12.9,5.4V497c0,8.399-6.599,15-15,15  h-30v-90c41.4,0,75-34.6,75-76c0-17.1-5.7-32.401-15.3-45H406C414.401,301,421,307.599,421,316z" fill="#444444" data-original="#d3d3d8" class=""/>
<path xmlns="http://www.w3.org/2000/svg" style="" d="M467,0H45C20.099,0,0,21.099,0,46v240c0,24.899,20.099,45,45,45h422c24.901,0,45-20.101,45-45V46  C512,21.099,491.901,0,467,0z" fill="#fdc342" data-original="#ff7816" class=""/>
<path xmlns="http://www.w3.org/2000/svg" style="" d="M512,46v240c0,24.899-20.099,45-45,45H256V0h211C491.901,0,512,21.099,512,46z" fill="#fdc342" data-original="#ff4b00" class=""/>
<path xmlns="http://www.w3.org/2000/svg" style="" d="M296.499,125.499l-60-60C232.3,61,226,59.799,220.3,62.199C214.6,64.599,211,70,211,76v120  c0,6,3.6,11.4,9.3,13.799c1.8,0.901,3.9,1.201,5.7,1.201c3.9,0,7.8-1.5,10.499-4.501L256,187l40.499-40.501  C302.5,140.799,302.5,131.199,296.499,125.499z" fill="#5a5a5a" data-original="#ececf1" class=""/>
<g xmlns="http://www.w3.org/2000/svg">
	<path style="" d="M76,271c-8.291,0-15-6.709-15-15v-30c0-8.291,6.709-15,15-15s15,6.709,15,15v30   C91,264.291,84.291,271,76,271z" fill="#5a5a5a" data-original="#5a5a5a" class=""/>
	<path style="" d="M166,271c-8.291,0-15-6.709-15-15v-30c0-8.291,6.709-15,15-15s15,6.709,15,15v30   C181,264.291,174.291,271,166,271z" fill="#5a5a5a" data-original="#5a5a5a" class=""/>
</g>
<g xmlns="http://www.w3.org/2000/svg">
	<path style="" d="M316,271c-8.291,0-15-6.709-15-15v-30c0-8.291,6.709-15,15-15s15,6.709,15,15v30   C331,264.291,324.291,271,316,271z" fill="#444444" data-original="#444444" class=""/>
	<path style="" d="M376,271c-8.291,0-15-6.709-15-15v-30c0-8.291,6.709-15,15-15s15,6.709,15,15v30   C391,264.291,384.291,271,376,271z" fill="#444444" data-original="#444444" class=""/>
</g>
<path xmlns="http://www.w3.org/2000/svg" style="" d="M296.499,146.499L256,187V85l40.499,40.499C302.5,131.199,302.5,140.799,296.499,146.499z" fill="#444444" data-original="#e2e2e7" class=""/>
<path xmlns="http://www.w3.org/2000/svg" style="" d="M451,256c0,8.399-6.599,15-15,15H76c-8.401,0-15-6.601-15-15c0-8.401,6.599-15,15-15h360  C444.401,241,451,247.599,451,256z" fill="#5a5a5a" data-original="#5a5a5a" class=""/>
<path xmlns="http://www.w3.org/2000/svg" style="" d="M451,256c0,8.399-6.599,15-15,15H256v-30h180C444.401,241,451,247.599,451,256z" fill="#444444" data-original="#444444" class=""/>
<g xmlns="http://www.w3.org/2000/svg">
</g>
<g xmlns="http://www.w3.org/2000/svg">
</g>
<g xmlns="http://www.w3.org/2000/svg">
</g>
<g xmlns="http://www.w3.org/2000/svg">
</g>
<g xmlns="http://www.w3.org/2000/svg">
</g>
<g xmlns="http://www.w3.org/2000/svg">
</g>
<g xmlns="http://www.w3.org/2000/svg">
</g>
<g xmlns="http://www.w3.org/2000/svg">
</g>
<g xmlns="http://www.w3.org/2000/svg">
</g>
<g xmlns="http://www.w3.org/2000/svg">
</g>
<g xmlns="http://www.w3.org/2000/svg">
</g>
<g xmlns="http://www.w3.org/2000/svg">
</g>
<g xmlns="http://www.w3.org/2000/svg">
</g>
<g xmlns="http://www.w3.org/2000/svg">
</g>
<g xmlns="http://www.w3.org/2000/svg">
</g>
</g></svg>
