<svg width="32" height="32" xmlns="http://www.w3.org/2000/svg">

 <g>
  <title>background</title>
  <rect fill="none" id="canvas_background" height="402" width="582" y="-1" x="-1"/>
 </g>
 <g>
  <title>Layer 1</title>
  <path id="svg_5" fill="#FFFFFF" d="m30.5,22l0,-18.5c0,-0.553 -0.447,-1 -1,-1l-27,0c-0.553,0 -1,0.447 -1,1l0,18.5l29,0z"/>
  <path id="svg_7" fill="#fcc54b" d="m2,6l0,-2.5c0,-0.553 -0.053,-0.5 0.5,-0.5l27,0c0.553,0 0.5,-0.053 0.5,0.5l0,2.5l-28,0z"/>
  <rect id="svg_8" y="3" x="2" width="28" height="1" fill="#FFFFFF"/>
  <circle id="svg_9" r="0.5" fill="#455A64" cy="4.5" cx="7.5"/>
  <circle id="svg_10" r="0.5" fill="#455A64" cy="4.5" cx="5.5"/>
  <circle id="svg_11" r="0.5" fill="#455A64" cy="4.5" cx="3.5"/>
  <rect id="svg_12" y="7" x="2" width="28" height="1" fill="#FFFFFF"/>
  <path id="svg_13" fill="#455A64" d="m30.5,7l-29,0c-0.276,0 -0.5,-0.224 -0.5,-0.5s0.224,-0.5 0.5,-0.5l29,0c0.276,0 0.5,0.224 0.5,0.5s-0.224,0.5 -0.5,0.5z"/>
  <path id="svg_14" fill="#455A64" d="m1.5,22c-0.276,0 -0.5,-0.224 -0.5,-0.5l0,-18c0,-0.827 0.673,-1.5 1.5,-1.5l27,0c0.827,0 1.5,0.673 1.5,1.5l0,9c0,0.276 -0.224,0.5 -0.5,0.5s-0.5,-0.224 -0.5,-0.5l0,-9c0,-0.275 -0.224,-0.5 -0.5,-0.5l-27,0c-0.276,0 -0.5,0.225 -0.5,0.5l0,18c0,0.276 -0.224,0.5 -0.5,0.5z"/>
  <rect id="svg_17" y="8" x="2" width="28" height="12" fill="#F2F4F5"/>
  <path id="svg_18" fill="#FFFFFF" d="m13.5,25.5l0,3c0,1.104 -0.896,2 -2,2l-1,0l11.5,0l-1.5,0c-1.104,0 -2,-0.896 -2,-2l0,-3l-5,0z"/>
  <rect id="svg_19" y="26" x="13.5" width="5" height="1" fill="#ECEFF1"/>
  <path id="svg_20" fill="#455A64" d="m22,31l-11.5,0c-0.276,0 -0.5,-0.224 -0.5,-0.5s0.224,-0.5 0.5,-0.5l1,0c0.827,0 1.5,-0.673 1.5,-1.5l0,-1c0,-0.276 0.224,-0.5 0.5,-0.5s0.5,0.224 0.5,0.5l0,1c0,0.563 -0.187,1.082 -0.501,1.5l5.002,0c-0.314,-0.418 -0.501,-0.937 -0.501,-1.5l0,-3c0,-0.276 0.224,-0.5 0.5,-0.5s0.5,0.224 0.5,0.5l0,3c0,0.827 0.673,1.5 1.5,1.5l1.5,0c0.276,0 0.5,0.224 0.5,0.5s-0.224,0.5 -0.5,0.5z"/>
  <path id="svg_21" fill="#FFFFFF" d="m29.5,25.5l-27,0c-0.553,0 -1,-0.447 -1,-1l0,-3l29,0l0,3c0,0.553 -0.447,1 -1,1z"/>
  <path id="svg_22" fill="#ECEFF1" d="m29.5,25.5l-27,0c-0.553,0 -1,-0.447 -1,-1l0,-1.5l29,0l0,1.5c0,0.553 -0.447,1 -1,1z"/>
  <path id="svg_23" fill="#455A64" d="m18.5,26l-16,0c-0.827,0 -1.5,-0.673 -1.5,-1.5l0,-3c0,-0.276 0.224,-0.5 0.5,-0.5l14,0c0.276,0 0.5,0.224 0.5,0.5s-0.224,0.5 -0.5,0.5l-13.5,0l0,2.5c0,0.275 0.224,0.5 0.5,0.5l16,0c0.276,0 0.5,0.224 0.5,0.5s-0.224,0.5 -0.5,0.5z"/>
  <path id="svg_26" fill="#455A64" d="m18.5,14l-1,0c-0.276,0 -0.5,-0.224 -0.5,-0.5s0.224,-0.5 0.5,-0.5l1,0c0.276,0 0.5,0.224 0.5,0.5s-0.224,0.5 -0.5,0.5z"/>
  <path id="svg_28" fill="#455A64" d="m27.5,10l-10,0c-0.276,0 -0.5,-0.224 -0.5,-0.5s0.224,-0.5 0.5,-0.5l10,0c0.276,0 0.5,0.224 0.5,0.5s-0.224,0.5 -0.5,0.5z"/>
  <path id="svg_30" fill="#455A64" d="m27.5,12l-10,0c-0.276,0 -0.5,-0.224 -0.5,-0.5s0.224,-0.5 0.5,-0.5l10,0c0.276,0 0.5,0.224 0.5,0.5s-0.224,0.5 -0.5,0.5z"/>
  <path id="svg_33" fill="#455A64" d="m7.5,14l-3,0c-0.276,0 -0.5,-0.224 -0.5,-0.5s0.224,-0.5 0.5,-0.5l3,0c0.276,0 0.5,0.224 0.5,0.5s-0.224,0.5 -0.5,0.5z"/>
  <path id="svg_35" fill="#455A64" d="m14.5,10l-10,0c-0.276,0 -0.5,-0.224 -0.5,-0.5s0.224,-0.5 0.5,-0.5l10,0c0.276,0 0.5,0.224 0.5,0.5s-0.224,0.5 -0.5,0.5z"/>
  <path id="svg_37" fill="#455A64" d="m14.5,12l-10,0c-0.276,0 -0.5,-0.224 -0.5,-0.5s0.224,-0.5 0.5,-0.5l10,0c0.276,0 0.5,0.224 0.5,0.5s-0.224,0.5 -0.5,0.5z"/>
  <rect id="svg_38" y="15" x="17" width="11" height="5" fill="#fbe0a6"/>
  <rect id="svg_39" y="15" x="4" width="11" height="5" fill="#fcc54b"/>
  <circle id="svg_44" r="6.5" fill="#FFFFFF" cy="20" cx="24"/>
  <path id="svg_45" fill="#fcc54b" d="m25,14.5c-3.589,0 -6.5,2.911 -6.5,6.5c0,1.54 0.538,2.952 1.434,4.065c1.113,0.896 2.526,1.435 4.066,1.435c3.59,0 6.5,-2.91 6.5,-6.5c0,-1.54 -0.538,-2.952 -1.434,-4.066c-1.113,-0.895 -2.526,-1.434 -4.066,-1.434z"/>
  <path id="svg_49" fill="#455A64" d="m24,27c-3.86,0 -7,-3.141 -7,-7s3.14,-7 7,-7c1.352,0 2.663,0.386 3.792,1.115c0.232,0.15 0.298,0.459 0.148,0.691c-0.15,0.23 -0.458,0.3 -0.691,0.148c-0.966,-0.624 -2.09,-0.954 -3.249,-0.954c-3.309,0 -6,2.691 -6,6s2.691,6 6,6s6,-2.691 6,-6c0,-0.642 -0.101,-1.273 -0.299,-1.877c-0.086,-0.263 0.057,-0.545 0.319,-0.631c0.262,-0.088 0.545,0.057 0.631,0.318c0.231,0.706 0.349,1.442 0.349,2.19c0,3.859 -3.14,7 -7,7z"/>
  <path id="svg_53" fill="#455A64" d="m23.5,22.699c-0.004,0 -0.008,0 -0.012,0c-0.145,-0.004 -0.28,-0.069 -0.373,-0.18l-2.5,-3c-0.176,-0.213 -0.147,-0.528 0.064,-0.705c0.213,-0.176 0.527,-0.147 0.705,0.064l2.133,2.561l6.215,-6.865c0.188,-0.204 0.504,-0.216 0.706,-0.031c0.203,0.187 0.217,0.503 0.03,0.707l-6.6,7.287c-0.095,0.104 -0.227,0.162 -0.368,0.162z"/>
 </g>
</svg>